<svg xmlns="http://www.w3.org/2000/svg" width="1017" height="554" viewBox="0 146 1017 554" font-family="Helvetica, Arial, sans-serif"><rect x="-40" y="-40" width="1097" height="820" fill="#fdfbf6"/><defs><marker id="ab" viewBox="0 0 10 10" refX="8" refY="5" markerWidth="7" markerHeight="7" orient="auto-start-reverse"><path d="M 0 0 L 10 5 L 0 10 z" fill="#2b2a26"/></marker></defs><rect x="365.0" y="252" width="512.0" height="304" fill="#c07f2a" opacity="0.10"/><line x1="86" y1="554" x2="86" y2="248" stroke="#b7b0a2" stroke-width="1.1"/><line x1="192" y1="554" x2="192" y2="248" stroke="#b7b0a2" stroke-width="1.1"/><line x1="298" y1="554" x2="298" y2="248" stroke="#b7b0a2" stroke-width="1.1"/><line x1="404" y1="554" x2="404" y2="248" stroke="#b7b0a2" stroke-width="1.1"/><line x1="478" y1="554" x2="478" y2="248" stroke="#b7b0a2" stroke-width="1.1"/><line x1="552" y1="554" x2="552" y2="248" stroke="#b7b0a2" stroke-width="1.1"/><line x1="658" y1="554" x2="658" y2="248" stroke="#b7b0a2" stroke-width="1.1"/><line x1="732" y1="554" x2="732" y2="248" stroke="#b7b0a2" stroke-width="1.1"/><line x1="838" y1="554" x2="838" y2="248" stroke="#b7b0a2" stroke-width="1.1"/><line x1="944" y1="554" x2="944" y2="248" stroke="#b7b0a2" stroke-width="1.1"/><rect x="45.0" y="512" width="940" height="30" rx="6" fill="#fdfbf6" stroke="#8b857a"/><text x="515.0" y="531" font-size="12" text-anchor="middle" fill="#2b2a26">attention</text><rect x="59.0" y="474" width="54" height="24" rx="5" fill="#fdfbf6" stroke="#8b857a"/><text x="86" y="490" font-size="10" text-anchor="middle" fill="#2b2a26">MLP</text><rect x="165.0" y="474" width="54" height="24" rx="5" fill="#fdfbf6" stroke="#8b857a"/><text x="192" y="490" font-size="10" text-anchor="middle" fill="#2b2a26">MLP</text><rect x="271.0" y="474" width="54" height="24" rx="5" fill="#fdfbf6" stroke="#8b857a"/><text x="298" y="490" font-size="10" text-anchor="middle" fill="#2b2a26">MLP</text><rect x="377.0" y="474" width="54" height="24" rx="5" fill="#fdfbf6" stroke="#8b857a"/><text x="404" y="490" font-size="10" text-anchor="middle" fill="#2b2a26">MLP</text><rect x="451.0" y="474" width="54" height="24" rx="5" fill="#fdfbf6" stroke="#8b857a"/><text x="478" y="490" font-size="10" text-anchor="middle" fill="#2b2a26">MLP</text><rect x="525.0" y="474" width="54" height="24" rx="5" fill="#fdfbf6" stroke="#8b857a"/><text x="552" y="490" font-size="10" text-anchor="middle" fill="#2b2a26">MLP</text><rect x="631.0" y="474" width="54" height="24" rx="5" fill="#fdfbf6" stroke="#8b857a"/><text x="658" y="490" font-size="10" text-anchor="middle" fill="#2b2a26">MLP</text><rect x="705.0" y="474" width="54" height="24" rx="5" fill="#fdfbf6" stroke="#8b857a"/><text x="732" y="490" font-size="10" text-anchor="middle" fill="#2b2a26">MLP</text><rect x="811.0" y="474" width="54" height="24" rx="5" fill="#fdfbf6" stroke="#8b857a"/><text x="838" y="490" font-size="10" text-anchor="middle" fill="#2b2a26">MLP</text><rect x="917.0" y="474" width="54" height="24" rx="5" fill="#fdfbf6" stroke="#8b857a"/><text x="944" y="490" font-size="10" text-anchor="middle" fill="#2b2a26">MLP</text><rect x="377.0" y="436" width="54" height="24" rx="5" fill="#f6e8d2" stroke="#c07f2a" stroke-width="1.4"/><text x="404" y="452" font-size="10" text-anchor="middle" fill="#c07f2a" font-weight="bold">+Δ</text><rect x="451.0" y="436" width="54" height="24" rx="5" fill="#f6e8d2" stroke="#c07f2a" stroke-width="1.4"/><text x="478" y="452" font-size="10" text-anchor="middle" fill="#c07f2a" font-weight="bold">+Δ</text><rect x="525.0" y="436" width="54" height="24" rx="5" fill="#f6e8d2" stroke="#c07f2a" stroke-width="1.4"/><text x="552" y="452" font-size="10" text-anchor="middle" fill="#c07f2a" font-weight="bold">+Δ</text><rect x="631.0" y="436" width="54" height="24" rx="5" fill="#f6e8d2" stroke="#c07f2a" stroke-width="1.4"/><text x="658" y="452" font-size="10" text-anchor="middle" fill="#c07f2a" font-weight="bold">+Δ</text><rect x="705.0" y="436" width="54" height="24" rx="5" fill="#f6e8d2" stroke="#c07f2a" stroke-width="1.4"/><text x="732" y="452" font-size="10" text-anchor="middle" fill="#c07f2a" font-weight="bold">+Δ</text><rect x="811.0" y="436" width="54" height="24" rx="5" fill="#f6e8d2" stroke="#c07f2a" stroke-width="1.4"/><text x="838" y="452" font-size="10" text-anchor="middle" fill="#c07f2a" font-weight="bold">+Δ</text><rect x="45.0" y="392" width="940" height="30" rx="6" fill="#fdfbf6" stroke="#8b857a"/><text x="515.0" y="411" font-size="12" text-anchor="middle" fill="#2b2a26">attention</text><rect x="59.0" y="354" width="54" height="24" rx="5" fill="#fdfbf6" stroke="#8b857a"/><text x="86" y="370" font-size="10" text-anchor="middle" fill="#2b2a26">MLP</text><rect x="165.0" y="354" width="54" height="24" rx="5" fill="#fdfbf6" stroke="#8b857a"/><text x="192" y="370" font-size="10" text-anchor="middle" fill="#2b2a26">MLP</text><rect x="271.0" y="354" width="54" height="24" rx="5" fill="#fdfbf6" stroke="#8b857a"/><text x="298" y="370" font-size="10" text-anchor="middle" fill="#2b2a26">MLP</text><rect x="377.0" y="354" width="54" height="24" rx="5" fill="#fdfbf6" stroke="#8b857a"/><text x="404" y="370" font-size="10" text-anchor="middle" fill="#2b2a26">MLP</text><rect x="451.0" y="354" width="54" height="24" rx="5" fill="#fdfbf6" stroke="#8b857a"/><text x="478" y="370" font-size="10" text-anchor="middle" fill="#2b2a26">MLP</text><rect x="525.0" y="354" width="54" height="24" rx="5" fill="#fdfbf6" stroke="#8b857a"/><text x="552" y="370" font-size="10" text-anchor="middle" fill="#2b2a26">MLP</text><rect x="631.0" y="354" width="54" height="24" rx="5" fill="#fdfbf6" stroke="#8b857a"/><text x="658" y="370" font-size="10" text-anchor="middle" fill="#2b2a26">MLP</text><rect x="705.0" y="354" width="54" height="24" rx="5" fill="#fdfbf6" stroke="#8b857a"/><text x="732" y="370" font-size="10" text-anchor="middle" fill="#2b2a26">MLP</text><rect x="811.0" y="354" width="54" height="24" rx="5" fill="#fdfbf6" stroke="#8b857a"/><text x="838" y="370" font-size="10" text-anchor="middle" fill="#2b2a26">MLP</text><rect x="917.0" y="354" width="54" height="24" rx="5" fill="#fdfbf6" stroke="#8b857a"/><text x="944" y="370" font-size="10" text-anchor="middle" fill="#2b2a26">MLP</text><rect x="377.0" y="316" width="54" height="24" rx="5" fill="#f6e8d2" stroke="#c07f2a" stroke-width="1.4"/><text x="404" y="332" font-size="10" text-anchor="middle" fill="#c07f2a" font-weight="bold">+Δ</text><rect x="451.0" y="316" width="54" height="24" rx="5" fill="#f6e8d2" stroke="#c07f2a" stroke-width="1.4"/><text x="478" y="332" font-size="10" text-anchor="middle" fill="#c07f2a" font-weight="bold">+Δ</text><rect x="525.0" y="316" width="54" height="24" rx="5" fill="#f6e8d2" stroke="#c07f2a" stroke-width="1.4"/><text x="552" y="332" font-size="10" text-anchor="middle" fill="#c07f2a" font-weight="bold">+Δ</text><rect x="631.0" y="316" width="54" height="24" rx="5" fill="#f6e8d2" stroke="#c07f2a" stroke-width="1.4"/><text x="658" y="332" font-size="10" text-anchor="middle" fill="#c07f2a" font-weight="bold">+Δ</text><rect x="705.0" y="316" width="54" height="24" rx="5" fill="#f6e8d2" stroke="#c07f2a" stroke-width="1.4"/><text x="732" y="332" font-size="10" text-anchor="middle" fill="#c07f2a" font-weight="bold">+Δ</text><rect x="811.0" y="316" width="54" height="24" rx="5" fill="#f6e8d2" stroke="#c07f2a" stroke-width="1.4"/><text x="838" y="332" font-size="10" text-anchor="middle" fill="#c07f2a" font-weight="bold">+Δ</text><text x="86" y="300" font-size="12" fill="#a89f8e" text-anchor="middle">&#183;&#183;&#183;</text><text x="192" y="300" font-size="12" fill="#a89f8e" text-anchor="middle">&#183;&#183;&#183;</text><text x="298" y="300" font-size="12" fill="#a89f8e" text-anchor="middle">&#183;&#183;&#183;</text><text x="404" y="300" font-size="12" fill="#a89f8e" text-anchor="middle">&#183;&#183;&#183;</text><text x="478" y="300" font-size="12" fill="#a89f8e" text-anchor="middle">&#183;&#183;&#183;</text><text x="552" y="300" font-size="12" fill="#a89f8e" text-anchor="middle">&#183;&#183;&#183;</text><text x="658" y="300" font-size="12" fill="#a89f8e" text-anchor="middle">&#183;&#183;&#183;</text><text x="732" y="300" font-size="12" fill="#a89f8e" text-anchor="middle">&#183;&#183;&#183;</text><text x="838" y="300" font-size="12" fill="#a89f8e" text-anchor="middle">&#183;&#183;&#183;</text><text x="944" y="300" font-size="12" fill="#a89f8e" text-anchor="middle">&#183;&#183;&#183;</text><line x1="944" y1="282" x2="944" y2="214" stroke="#2b2a26" stroke-width="1.8" marker-end="url(#ab)"/><text x="977" y="176" text-anchor="end" font-size="14.5" fill="#2b2a26">&#8220;Ferrets sleep 14&#8211;18 hours a day, so yes&#8230;&#8221;</text><text x="977" y="196" text-anchor="end" font-size="11.5" fill="#7c766a">injected instructions are ignored</text><rect x="53.0" y="556" width="66" height="28" rx="6" fill="#e7efe8" stroke="#2e8f62" stroke-width="1"/><text x="86" y="574" font-size="10" text-anchor="middle" fill="#2b2a26">Task:</text><rect x="159.0" y="556" width="66" height="28" rx="6" fill="#e7efe8" stroke="#2e8f62" stroke-width="1"/><text x="192" y="574" font-size="10" text-anchor="middle" fill="#2b2a26">ferrets</text><rect x="265.0" y="556" width="66" height="28" rx="6" fill="#e7efe8" stroke="#2e8f62" stroke-width="1"/><text x="298" y="574" font-size="10" text-anchor="middle" fill="#2b2a26">sleep?</text><rect x="371.0" y="556" width="66" height="28" rx="6" fill="#f6e8d2" stroke="#c07f2a" stroke-width="1.4"/><text x="404" y="574" font-size="10" text-anchor="middle" fill="#2b2a26">Ferrets</text><rect x="445.0" y="556" width="66" height="28" rx="6" fill="#f6e8d2" stroke="#c07f2a" stroke-width="1.4"/><text x="478" y="574" font-size="10" text-anchor="middle" fill="#2b2a26">sleep</text><rect x="519.0" y="556" width="66" height="28" rx="6" fill="#f6e8d2" stroke="#c07f2a" stroke-width="1.4"/><text x="552" y="574" font-size="10" text-anchor="middle" fill="#2b2a26">14–18</text><rect x="625.0" y="556" width="66" height="28" rx="6" fill="#f6e8d2" stroke="#c07f2a" stroke-width="1.4"/><text x="658" y="574" font-size="10" text-anchor="middle" fill="#c94f4f">Ignore</text><rect x="699.0" y="556" width="66" height="28" rx="6" fill="#f6e8d2" stroke="#c07f2a" stroke-width="1.4"/><text x="732" y="574" font-size="10" text-anchor="middle" fill="#c94f4f">previous</text><rect x="805.0" y="556" width="66" height="28" rx="6" fill="#f6e8d2" stroke="#c07f2a" stroke-width="1.4"/><text x="838" y="574" font-size="10" text-anchor="middle" fill="#2b2a26">…dusk.</text><rect x="911.0" y="556" width="66" height="28" rx="6" fill="#e7efe8" stroke="#2e8f62" stroke-width="1"/><text x="944" y="574" font-size="10" text-anchor="middle" fill="#2b2a26">Answer.</text><text x="139.0" y="576" font-size="14" fill="#a89f8e" text-anchor="middle" font-weight="bold">&#183;&#183;&#183;</text><text x="245.0" y="576" font-size="14" fill="#a89f8e" text-anchor="middle" font-weight="bold">&#183;&#183;&#183;</text><text x="351.0" y="576" font-size="14" fill="#a89f8e" text-anchor="middle" font-weight="bold">&#183;&#183;&#183;</text><text x="605.0" y="576" font-size="14" fill="#a89f8e" text-anchor="middle" font-weight="bold">&#183;&#183;&#183;</text><text x="785.0" y="576" font-size="14" fill="#a89f8e" text-anchor="middle" font-weight="bold">&#183;&#183;&#183;</text><text x="891.0" y="576" font-size="14" fill="#a89f8e" text-anchor="middle" font-weight="bold">&#183;&#183;&#183;</text><path d="M 53.0 624 V 630 H 331.0 V 624" fill="none" stroke="#2e8f62" stroke-width="1.2"/><text x="192.0" y="646" font-size="11" fill="#2e8f62" text-anchor="middle">trusted</text><path d="M 371.0 624 V 630 H 871.0 V 624" fill="none" stroke="#c07f2a" stroke-width="1.2"/><text x="621.0" y="646" font-size="11" fill="#c07f2a" text-anchor="middle">retrieved text, marked &#8220;do not execute&#8221; by semantic overlay</text><path d="M 911.0 624 V 630 H 977.0 V 624" fill="none" stroke="#2e8f62" stroke-width="1.2"/><text x="944.0" y="646" font-size="11" fill="#2e8f62" text-anchor="middle">trusted</text><text x="508" y="680" text-anchor="middle" font-size="12.5" fill="#7c766a">The model is frozen; the adapters write into the residual stream only on the marked span. No token in the prompt differs.</text><path d="M 625.0 592 V 598 H 765.0 V 592" fill="none" stroke="#c94f4f" stroke-width="1.2"/><text x="695.0" y="612" font-size="11" fill="#c94f4f" text-anchor="middle">prompt injection attack</text></svg>